<?xml version="1.0" encoding="utf-8"?>
<!-- Generator: $$$/GeneralStr/196=Adobe Illustrator 27.6.0, SVG Export Plug-In . SVG Version: 6.00 Build 0)  -->
<svg version="1.1" id="Ebene_1" xmlns="http://www.w3.org/2000/svg" xmlns:xlink="http://www.w3.org/1999/xlink" x="0px" y="0px"
	 viewBox="0 0 1080 1080" style="enable-background:new 0 0 1080 1080;" xml:space="preserve">
<style type="text/css">
	.st0{fill:#009FE3;}
	.st1{fill:url(#SVGID_1_);}
	.st2{fill:url(#SVGID_00000031185457716876237870000010869946730266439346_);}
	.st3{fill:url(#SVGID_00000098195339060666009130000008501366317828330388_);}
</style>
<g>
	<g>
		<path class="st0" d="M224.9,984.8c0,2.6,0.4,5,1.2,6.9c2.3,6.3,9.4,7.6,15.4,7.6c5.3,0,13.3-1.8,13.3-9.5c0-5.4-4.5-6.9-22.6-12
			c-16.6-4.7-35.5-9.2-35.5-30.3c0-24.2,20.7-34.6,42.2-34.6c22.7,0,42.8,8.6,43.7,34.1h-30.5c0.6-4-1.2-6.6-3.8-8.4
			c-2.6-1.9-6.3-2.6-9.5-2.6c-4.4,0-11.6,1.2-11.6,7c0.6,7.5,15.5,9.1,30.3,13.2c14.8,4.1,29.4,11,29.4,30.2c0,27.2-25.1,36-48.3,36
			c-11.9,0-45.7-4.2-46-37.6H224.9z"/>
		<path class="st0" d="M411.4,912.9c31.8,0,53,22.9,53,54.8c0,31.9-21.2,54.8-53,54.8c-31.8,0-53-22.9-53-54.8
			C358.4,935.8,379.6,912.9,411.4,912.9z M411.4,996.4c8.2,0,20.8-5.4,20.8-28.7c0-23.3-12.6-28.7-20.8-28.7
			c-8.2,0-20.8,5.4-20.8,28.7C390.6,991,403.2,996.4,411.4,996.4z"/>
		<path class="st0" d="M608.4,954.4c-0.6-3.8-3.5-15.4-16.8-15.4c-15.1,0-19.9,14.7-19.9,28.7c0,14.1,4.8,28.7,19.9,28.7
			c10.8,0,15.1-7.6,17-17.4h31.6c0,21.1-17.1,43.5-47.8,43.5c-33.8,0-53-23.9-53-54.8c0-33,20.8-54.8,53-54.8
			c28.7,0.1,44.5,15.2,47.3,41.5H608.4z"/>
		<path class="st0" d="M718.1,915.4h32.2V1020h-32.2V915.4z"/>
		<path class="st0" d="M860.3,915.4h31.5l38.1,104.6h-33.4l-4.4-14.9h-33.3l-4.7,14.9h-32.4L860.3,915.4z M885.6,982.6l-9.4-32.2
			H876l-10.1,32.2H885.6z"/>
		<path class="st0" d="M1001.5,915.4h32.2v77.8h46.3v26.8h-78.5V915.4z"/>
	</g>
</g>
<g>
	<linearGradient id="SVGID_1_" gradientUnits="userSpaceOnUse" x1="499.2701" y1="462.7428" x2="1036.1177" y2="475.7836">
		<stop  offset="0" style="stop-color:#2D2E83"/>
		<stop  offset="1" style="stop-color:#009FE3"/>
	</linearGradient>
	<path class="st1" d="M1053.6,694.6c-8.8-97.7-49.4-170.2-115.3-195.4c80.2-29.6,117.5-115.3,117.5-196.5
		c0-148.2-118.6-224-255.8-224H539c-54,0-133.8,38-144.6,90.9l-19.6,95.7h206.7h27.9h78.2h119.2c0,0,0,0,0,0s0,0,0,0h0v0
		c25.5,0,46.1,20.7,46.1,46.2c0,25.2-20.1,45.6-45.2,46.2l0,0.1H697.2h-60.5l-46,231.5H710c95.5,0,102.1,78,108.7,152.6
		c3.3,40.6,7.7,81.3,19.8,120.8H1080C1058,826.3,1056.9,733,1053.6,694.6z"/>
	<g>
		
			<linearGradient id="SVGID_00000145760670553528456860000016481437927666454192_" gradientUnits="userSpaceOnUse" x1="356.4139" y1="517.9789" x2="567.8574" y2="417.2916">
			<stop  offset="0" style="stop-color:#2D2E83"/>
			<stop  offset="1" style="stop-color:#009FE3"/>
		</linearGradient>
		<path style="fill:url(#SVGID_00000145760670553528456860000016481437927666454192_);" d="M564.6,263.7
			c14.6-93.4,67.3-170,155.5-185.1H604.4H500.9l-18.3,1.5c-43.4,7.3-79.1,40.2-89,84.4L306.3,554l78.3,308.5h51.2l128.5-597.3
			L564.6,263.7z"/>
	</g>
	
		<linearGradient id="SVGID_00000013152202951537529080000009401769876560299657_" gradientUnits="userSpaceOnUse" x1="127.4233" y1="-174.2517" x2="251.1577" y2="707.5518">
		<stop  offset="0" style="stop-color:#2D2E83"/>
		<stop  offset="1" style="stop-color:#009FE3"/>
	</linearGradient>
	<path style="fill:url(#SVGID_00000013152202951537529080000009401769876560299657_);" d="M194.5,78.6h-80.6
		c-71,0-121.5,69-100.1,136.6l204.9,647.3h224L194.5,78.6z"/>
</g>
</svg>
